<?xml version="1.0" encoding="UTF-8" standalone="no"?>
<svg
   viewBox="0 0 170 170"
   width="170"
   height="170"
   version="1.1"
   id="svg9"
   sodipodi:docname="cupid-enhanced-logo.svg"
   inkscape:version="1.4.2 (f4327f4, 2025-05-13)"
   inkscape:export-filename="cupid-enhanced-logo.png"
   inkscape:export-xdpi="96"
   inkscape:export-ydpi="96"
   xmlns:inkscape="http://www.inkscape.org/namespaces/inkscape"
   xmlns:sodipodi="http://sodipodi.sourceforge.net/DTD/sodipodi-0.dtd"
   xmlns="http://www.w3.org/2000/svg"
   xmlns:svg="http://www.w3.org/2000/svg"><sodipodi:namedview
   id="namedview9"
   pagecolor="#ffffff"
   bordercolor="#000000"
   borderopacity="0.25"
   inkscape:showpageshadow="2"
   inkscape:pageopacity="0.0"
   inkscape:pagecheckerboard="0"
   inkscape:deskcolor="#d1d1d1"
   inkscape:zoom="6.7235294"
   inkscape:cx="84.925634"
   inkscape:cy="85"
   inkscape:window-width="3440"
   inkscape:window-height="1361"
   inkscape:window-x="-9"
   inkscape:window-y="-9"
   inkscape:window-maximized="1"
   inkscape:current-layer="svg9" />
<defs
   id="defs7">
  <!-- Main diagonal gradient -->
  <linearGradient
     id="gMain"
     x1="-16.020698"
     y1="31.850571"
     x2="512.79813"
     y2="560.6694"
     gradientTransform="scale(1.086095,0.92072976)"
     gradientUnits="userSpaceOnUse">
    <stop
       offset="0"
       stop-color="#FF4F9A"
       id="stop1" />
    <stop
       offset="0.45"
       stop-color="#FF7AB3"
       id="stop2" />
    <stop
       offset="1"
       stop-color="#7C3AED"
       id="stop3" />
  </linearGradient>
  <!-- Subtle darker gradient for shadowed duplicate -->
  <linearGradient
     id="gDark"
     x1="-17.696038"
     y1="26.610182"
     x2="517.74503"
     y2="562.05124"
     gradientTransform="scale(1.0849887,0.9216686)"
     gradientUnits="userSpaceOnUse">
    <stop
       offset="0"
       stop-color="#3A0CA3"
       id="stop4" />
    <stop
       offset="1"
       stop-color="#240046"
       id="stop5" />
  </linearGradient>
  <!-- Soft glow filter -->
  <filter
     id="fGlow"
     x="-0.035388606"
     y="-0.042188601"
     width="1.0707772"
     height="1.0843772">
    <feGaussianBlur
       in="SourceGraphic"
       stdDeviation="8"
       result="blur"
       id="feGaussianBlur5" />
    <feMerge
       id="feMerge6">
      <feMergeNode
         in="blur"
         id="feMergeNode5" />
      <feMergeNode
         in="SourceGraphic"
         id="feMergeNode6" />
    </feMerge>
  </filter>
  <!-- Inner shadow filter for slightly inset depth -->
  <filter
     id="fInner"
     x="-0.032070924"
     y="-0.031641451"
     width="1.0586124"
     height="1.0698749">
    <feGaussianBlur
       in="SourceAlpha"
       stdDeviation="6"
       result="blurAlpha"
       id="feGaussianBlur6" />
    <feOffset
       in="blurAlpha"
       dx="-3"
       dy="3"
       result="offsetBlur"
       id="feOffset6" />
    <feComposite
       in="offsetBlur"
       in2="SourceAlpha"
       operator="arithmetic"
       k2="-1"
       k3="1"
       result="innerShadow"
       id="feComposite6" />
    <feColorMatrix
       in="innerShadow"
       type="matrix"
       values="0 0 0 0 0                 0 0 0 0 0                 0 0 0 0 0                 0 0 0 0.5"
       result="shadowColor"
       id="feColorMatrix6" />
    <feBlend
       in="SourceGraphic"
       in2="shadowColor"
       mode="normal"
       id="feBlend6" />
  </filter>
  <!-- Subtle rounded rect background (optional) -->
  <linearGradient
     id="bgGrad"
     x1="40"
     y1="25"
     x2="40"
     y2="195"
     gradientUnits="userSpaceOnUse"
     gradientTransform="translate(-39.860017,-24.838145)">
    <stop
       offset="0"
       stop-color="#070617"
       id="stop6" />
    <stop
       offset="1"
       stop-color="#180428"
       id="stop7" />
  </linearGradient>
</defs>


  Optional dark rounded background; comment out if not wanted
  <rect
   x="0.13998251"
   y="0.16185477"
   rx="24"
   ry="24"
   width="170"
   height="170"
   fill="url(#bgGrad)"
   opacity="0.9"
   id="rect7"
   style="fill:url(#bgGrad)" />
<!-- Cupid Icon with shadow -->
<g
   transform="matrix(0.29038514,0,0,0.32116062,5.0255909,-1.3785144)"
   id="g9">
    Shadow duplicate
    <path
   d="m 518.604,292.991 c -22.195,-0.669 -38.346,-6.053 -48.435,14.803 -10.089,20.856 -39.685,26.909 -57.174,9.419 -17.49,-17.489 1.348,-25.561 -20.856,-36.997 -22.194,-11.437 22.195,-4.705 30.944,9.419 8.74,14.124 15.473,-6.722 5.384,-18.159 -10.088,-11.437 39.015,20.856 20.855,-8.07 -18.158,-28.927 94.182,23.543 16.821,-22.195 40.028,0.335 27.912,-16.82 18.503,-18.503 -9.419,-1.683 34.646,-10.088 1.014,-20.521 -16.142,-6.723 53.817,-27.913 -11.771,-23.877 -19.88,0.134 -21.859,-22.874 -46.082,-39.35 -24.222,-16.477 -47.765,-7.736 -64.575,22.194 -16.81,29.93 -46.082,38.011 -50.117,16.142 -4.035,-21.86 32.293,-19.842 27.913,-50.117 -4.37,-30.275 22.194,-42.716 -13.454,-57.174 -35.649,-14.458 -31.948,-34.31 -56.17,-22.874 -24.212,11.437 -39.015,3.031 -41.367,28.257 -2.353,25.226 -27.187,9.715 -13.12,38.011 15.472,31.116 1.31,28.926 2.018,35.314 0,0 2.218,22.204 13.454,29.261 14.812,9.304 22.539,10.088 23.878,10.768 -2.018,10.423 -30.438,21.697 -39.35,7.401 l -39.015,-77.361 c 0,0 18.159,-78.365 -31.614,-49.782 -22.874,17.825 34.979,25.895 -4.37,52.804 -22.194,11.437 -62.443,29.921 -71.862,77.686 L 36.779,190.148 V 168.623 L 0,189.793 36.777,220.642 v -19.728 l 30.973,11.045 c 0,0 -2.582,35.286 12.555,54.793 21.468,27.674 53.674,44.398 53.674,65.924 0,21.526 -25.972,18.159 -13.187,39.015 12.785,20.856 40.153,-8.749 30.064,-51.8 l 50.012,-52.47 c 0,0 14.287,-12.784 46.531,16.199 l 29.654,26.852 c 0,0 -3.338,63.237 16.17,84.762 19.508,21.525 43.92,38.709 67.281,49.104 43.061,19.173 15.816,53.139 37.007,54.487 0,0 37.342,-7.066 28.593,-47.42 -8.74,-40.364 -18.494,-35.994 -31.614,-36.998 -23.878,-5.049 -25.896,-28.257 -22.873,-46.751 3.031,-18.503 57.519,78.03 112.675,-8.74 29.901,-42.122 43.729,-37.666 53.817,-40.363 10.1,-2.688 2.698,-24.883 -19.505,-25.562 z M 148.63,304.763 c -1.683,-4.035 -0.334,-2.018 -15.807,-22.873 -15.472,-20.856 -8.97,-48.549 -8.97,-48.549 34.645,21.19 65.14,28.362 65.14,28.362 z m 43.385,-84.083 -67.052,-14.42 c -9.419,-65.255 44.179,-77.064 44.179,-77.064 l 35.314,73.66 c -12.106,4.37 -12.441,17.824 -12.441,17.824 z"
   fill="url(#gDark)"
   opacity="0.85"
   filter="url(#fGlow)"
   transform="translate(4,4)"
   id="path7"
   style="fill:url(#gDark)" />


    Main icon with gradient
    <path
   d="m 518.604,292.991 c -22.195,-0.669 -38.346,-6.053 -48.435,14.803 -10.089,20.856 -39.685,26.909 -57.174,9.419 -17.49,-17.489 1.348,-25.561 -20.856,-36.997 -22.194,-11.437 22.195,-4.705 30.944,9.419 8.74,14.124 15.473,-6.722 5.384,-18.159 -10.088,-11.437 39.015,20.856 20.855,-8.07 -18.158,-28.927 94.182,23.543 16.821,-22.195 40.028,0.335 27.912,-16.82 18.503,-18.503 -9.419,-1.683 34.646,-10.088 1.014,-20.521 -16.142,-6.723 53.817,-27.913 -11.771,-23.877 -19.88,0.134 -21.859,-22.874 -46.082,-39.35 -24.222,-16.477 -47.765,-7.736 -64.575,22.194 -16.81,29.93 -46.082,38.011 -50.117,16.142 -4.035,-21.86 32.293,-19.842 27.913,-50.117 -4.37,-30.275 22.194,-42.716 -13.454,-57.174 -35.649,-14.458 -31.948,-34.31 -56.17,-22.874 -24.212,11.437 -39.015,3.031 -41.367,28.257 -2.353,25.226 -27.187,9.715 -13.12,38.011 15.472,31.116 1.31,28.926 2.018,35.314 0,0 2.218,22.204 13.454,29.261 14.812,9.304 22.539,10.088 23.878,10.768 -2.018,10.423 -30.438,21.697 -39.35,7.401 l -39.015,-77.361 c 0,0 18.159,-78.365 -31.614,-49.782 -22.874,17.825 34.979,25.895 -4.37,52.804 -22.194,11.437 -62.443,29.921 -71.862,77.686 L 36.779,190.148 V 168.623 L 0,189.793 36.777,220.642 v -19.728 l 30.973,11.045 c 0,0 -2.582,35.286 12.555,54.793 21.468,27.674 53.674,44.398 53.674,65.924 0,21.526 -25.972,18.159 -13.187,39.015 12.785,20.856 40.153,-8.749 30.064,-51.8 l 50.012,-52.47 c 0,0 14.287,-12.784 46.531,16.199 l 29.654,26.852 c 0,0 -3.338,63.237 16.17,84.762 19.508,21.525 43.92,38.709 67.281,49.104 43.061,19.173 15.816,53.139 37.007,54.487 0,0 37.342,-7.066 28.593,-47.42 -8.74,-40.364 -18.494,-35.994 -31.614,-36.998 -23.878,-5.049 -25.896,-28.257 -22.873,-46.751 3.031,-18.503 57.519,78.03 112.675,-8.74 29.901,-42.122 43.729,-37.666 53.817,-40.363 10.1,-2.688 2.698,-24.883 -19.505,-25.562 z M 148.63,304.763 c -1.683,-4.035 -0.334,-2.018 -15.807,-22.873 -15.472,-20.856 -8.97,-48.549 -8.97,-48.549 34.645,21.19 65.14,28.362 65.14,28.362 z m 43.385,-84.083 -67.052,-14.42 c -9.419,-65.255 44.179,-77.064 44.179,-77.064 l 35.314,73.66 c -12.106,4.37 -12.441,17.824 -12.441,17.824 z"
   fill="url(#gMain)"
   filter="url(#fInner)"
   id="path8"
   style="fill:url(#gMain)" />


    Highlight stroke
    <path
   d="m 518.604,292.991 c -22.195,-0.669 -38.346,-6.053 -48.435,14.803 -10.089,20.856 -39.685,26.909 -57.174,9.419 -17.49,-17.489 1.348,-25.561 -20.856,-36.997 -22.194,-11.437 22.195,-4.705 30.944,9.419 8.74,14.124 15.473,-6.722 5.384,-18.159 -10.088,-11.437 39.015,20.856 20.855,-8.07 -18.158,-28.927 94.182,23.543 16.821,-22.195 40.028,0.335 27.912,-16.82 18.503,-18.503 -9.419,-1.683 34.646,-10.088 1.014,-20.521 -16.142,-6.723 53.817,-27.913 -11.771,-23.877 -19.88,0.134 -21.859,-22.874 -46.082,-39.35 -24.222,-16.477 -47.765,-7.736 -64.575,22.194 -16.81,29.93 -46.082,38.011 -50.117,16.142 -4.035,-21.86 32.293,-19.842 27.913,-50.117 -4.37,-30.275 22.194,-42.716 -13.454,-57.174 -35.649,-14.458 -31.948,-34.31 -56.17,-22.874 -24.212,11.437 -39.015,3.031 -41.367,28.257 -2.353,25.226 -27.187,9.715 -13.12,38.011 15.472,31.116 1.31,28.926 2.018,35.314 0,0 2.218,22.204 13.454,29.261 14.812,9.304 22.539,10.088 23.878,10.768 -2.018,10.423 -30.438,21.697 -39.35,7.401 l -39.015,-77.361 c 0,0 18.159,-78.365 -31.614,-49.782 -22.874,17.825 34.979,25.895 -4.37,52.804 -22.194,11.437 -62.443,29.921 -71.862,77.686 L 36.779,190.148 V 168.623 L 0,189.793 36.777,220.642 v -19.728 l 30.973,11.045 c 0,0 -2.582,35.286 12.555,54.793 21.468,27.674 53.674,44.398 53.674,65.924 0,21.526 -25.972,18.159 -13.187,39.015 12.785,20.856 40.153,-8.749 30.064,-51.8 l 50.012,-52.47 c 0,0 14.287,-12.784 46.531,16.199 l 29.654,26.852 c 0,0 -3.338,63.237 16.17,84.762 19.508,21.525 43.92,38.709 67.281,49.104 43.061,19.173 15.816,53.139 37.007,54.487 0,0 37.342,-7.066 28.593,-47.42 -8.74,-40.364 -18.494,-35.994 -31.614,-36.998 -23.878,-5.049 -25.896,-28.257 -22.873,-46.751 3.031,-18.503 57.519,78.03 112.675,-8.74 29.901,-42.122 43.729,-37.666 53.817,-40.363 10.1,-2.688 2.698,-24.883 -19.505,-25.562 z M 148.63,304.763 c -1.683,-4.035 -0.334,-2.018 -15.807,-22.873 -15.472,-20.856 -8.97,-48.549 -8.97,-48.549 34.645,21.19 65.14,28.362 65.14,28.362 z m 43.385,-84.083 -67.052,-14.42 c -9.419,-65.255 44.179,-77.064 44.179,-77.064 l 35.314,73.66 c -12.106,4.37 -12.441,17.824 -12.441,17.824 z"
   fill="none"
   stroke="#ffffff"
   stroke-opacity="0.12"
   stroke-width="3"
   paint-order="stroke"
   id="path9" />
</g>
</svg>
